<svg xmlns="http://www.w3.org/2000/svg" width="38.484" height="49.943" viewBox="0 0 38.484 49.943">
  <g id="medal" transform="translate(-58.927 0.15)">
    <g id="Group_388" data-name="Group 388" transform="translate(59.077)">
      <g id="Group_387" data-name="Group 387">
        <path id="Path_533" data-name="Path 533" d="M78.169,0a19.084,19.084,0,0,0-12.41,33.589v15.1a.955.955,0,0,0,1.186.926l11.224-2.806,11.224,2.806a.955.955,0,0,0,1.186-.926v-15.1A19.084,19.084,0,0,0,78.169,0Zm0,44.866a.955.955,0,0,0-.232.029L67.668,47.462V35.037a19.063,19.063,0,0,0,2.164,1.229l.205.1.1.046A18.942,18.942,0,0,0,76.419,38.1l.017,0q.276.025.554.042l.138.009.189.009.27.01.151,0c.143,0,.287.005.43.005s.287,0,.43-.005l.151,0,.271-.01.189-.009.139-.009q.278-.017.553-.042l.017,0a18.953,18.953,0,0,0,4.932-1.127v3.117a.955.955,0,0,0,1.909,0V36.139a19.087,19.087,0,0,0,1.909-1.1V47.462L78.4,44.895A.961.961,0,0,0,78.169,44.866Zm7.506-10.32a17.248,17.248,0,0,1-6.018,1.663l-.023,0c-.1.009-.2.016-.3.023l-.128.008-.24.013-.215.008-.175.006c-.134,0-.269.005-.4.005s-.27,0-.4-.005l-.175-.006-.215-.008-.24-.013-.128-.008c-.1-.007-.2-.014-.3-.023l-.022,0a17.186,17.186,0,1,1,8.993-1.663Z" transform="translate(-59.077)" fill="#123c65" stroke="#fff" stroke-width="0.3"/>
      </g>
    </g>
    <g id="Group_390" data-name="Group 390" transform="translate(62.864 3.787)">
      <g id="Group_389" data-name="Group 389" transform="translate(0)">
        <path id="Path_534" data-name="Path 534" d="M113.439,39.057a15.305,15.305,0,1,0,15.305,15.305A15.323,15.323,0,0,0,113.439,39.057Zm0,28.7a13.4,13.4,0,1,1,13.4-13.4A13.411,13.411,0,0,1,113.439,67.759Z" transform="translate(-98.134 -39.057)" fill="#123c65" stroke="#fff" stroke-width="0.3"/>
      </g>
    </g>
    <g id="Group_392" data-name="Group 392" transform="translate(69.621 10.916)">
      <g id="Group_391" data-name="Group 391">
        <path id="Path_535" data-name="Path 535" d="M184.882,118.766a.955.955,0,0,0-.771-.65l-4.75-.69-2.124-4.3a.955.955,0,0,0-1.712,0l-2.124,4.3-4.75.69a.955.955,0,0,0-.529,1.628l3.437,3.35-.811,4.731a.955.955,0,0,0,1.385,1.006l4.249-2.234,4.249,2.234a.955.955,0,0,0,1.385-1.006l-.811-4.731,3.437-3.35A.954.954,0,0,0,184.882,118.766Zm-5.371,3.312a.955.955,0,0,0-.275.845l.569,3.319-2.981-1.567a.955.955,0,0,0-.888,0l-2.981,1.567.569-3.319a.955.955,0,0,0-.275-.845l-2.411-2.351,3.333-.484a.955.955,0,0,0,.719-.522l1.491-3.02,1.49,3.02a.955.955,0,0,0,.719.522l3.333.484Z" transform="translate(-167.832 -112.589)" fill="#123c65" stroke="#fff" stroke-width="0.3"/>
      </g>
    </g>
    <g id="Group_394" data-name="Group 394" transform="translate(84.851 42.003)">
      <g id="Group_393" data-name="Group 393">
        <path id="Path_536" data-name="Path 536" d="M326.813,434a.9.9,0,0,0-.054-.179.932.932,0,0,0-.088-.165.9.9,0,0,0-.118-.145.915.915,0,0,0-.145-.118.885.885,0,0,0-.165-.088.933.933,0,0,0-.551-.055,1,1,0,0,0-.18.055.972.972,0,0,0-.309.206.973.973,0,0,0-.119.145.943.943,0,0,0-.087.165.971.971,0,0,0-.055.179.938.938,0,0,0-.018.186.961.961,0,0,0,.28.675.906.906,0,0,0,.145.118.971.971,0,0,0,.164.088.927.927,0,0,0,.179.054.917.917,0,0,0,.372,0,.9.9,0,0,0,.178-.054.936.936,0,0,0,.165-.088.927.927,0,0,0,.264-.263.945.945,0,0,0,.088-.165.9.9,0,0,0,.054-.178.918.918,0,0,0,0-.372Z" transform="translate(-324.923 -433.233)" fill="#123c65" stroke="#fff" stroke-width="0.3"/>
      </g>
    </g>
  </g>
</svg>
