<svg xmlns="http://www.w3.org/2000/svg" width="108.166" height="27.385" viewBox="0 0 108.166 27.385">
  <path id="Path_1" data-name="Path 1" d="M38.4,462.866l0,0a1.242,1.242,0,1,0,2.057-1.393l.014-.009-.122-.126c-.021-.023-.041-.044-.064-.065l-.254-.262a8.016,8.016,0,0,0-2.259-1.635,7.033,7.033,0,0,0-1.333-.479,7.5,7.5,0,0,0-3.034-.177l-.388.066c-.158.026-.309.053-.466.072a5.1,5.1,0,0,1-2.042-.2,3.451,3.451,0,0,1-.473-.177,4.472,4.472,0,0,1-.854-.46A5.068,5.068,0,0,1,27,454.768a5.121,5.121,0,0,1,4.019-6.022,5.134,5.134,0,0,1,6.022,4.019,5.109,5.109,0,0,1-.3,2.982,1.212,1.212,0,0,0,.765,1.642l.026.007a1.226,1.226,0,0,0,1.476-.645,7.468,7.468,0,0,0,.471-4.478,7.591,7.591,0,1,0-10.7,8.367,8.578,8.578,0,0,0,1.32.479,7.5,7.5,0,0,0,2.758.2c.217-.026.433-.059.63-.1,0,0,.236-.033.348-.053a5.167,5.167,0,0,1,2.193.184,5.424,5.424,0,0,1,1.32.63,5.8,5.8,0,0,1,.742.6ZM34.39,470a2.225,2.225,0,0,0-.535-.314q-.242-.1-.5-.185-.227-.074-.442-.151a1.25,1.25,0,0,1-.27-.131.38.38,0,0,1-.112-.109.262.262,0,0,1-.013-.1.378.378,0,0,1,.028-.146.312.312,0,0,1,.074-.108.421.421,0,0,1,.143-.084.974.974,0,0,1,.522-.009.96.96,0,0,1,.19.088.937.937,0,0,1,.119.086.7.7,0,0,0,1.109-.154l.283-.543-.3-.3a2.234,2.234,0,0,0-.751-.5,2.483,2.483,0,0,0-1.729-.016,1.929,1.929,0,0,0-.638.405,1.768,1.768,0,0,0-.408.6,1.833,1.833,0,0,0-.138.7,1.742,1.742,0,0,0,.169.79,1.651,1.651,0,0,0,.434.543,2.162,2.162,0,0,0,.541.317q.244.1.5.181.225.071.439.145a1.23,1.23,0,0,1,.268.127.342.342,0,0,1,.107.106.285.285,0,0,1,.017.121.63.63,0,0,1-.043.237.454.454,0,0,1-.106.161.572.572,0,0,1-.195.119,1.109,1.109,0,0,1-.552.026,1.032,1.032,0,0,1-.19-.065.819.819,0,0,1-.131-.075c-.049-.036-.092-.07-.129-.1l-.119-.1a.694.694,0,0,0-1.013.087l-.368.572.289.328a2.56,2.56,0,0,0,.8.61,2.468,2.468,0,0,0,1.1.232,2.388,2.388,0,0,0,.885-.158,2.033,2.033,0,0,0,.691-.448,1.952,1.952,0,0,0,.44-.677,2.19,2.19,0,0,0,.145-.794,1.591,1.591,0,0,0-.605-1.3Zm6.543-2.674a3.049,3.049,0,1,0,3.049,3.049A3.052,3.052,0,0,0,40.933,467.326Zm-.007,4.475a1.427,1.427,0,1,1,1.391-1.426A1.408,1.408,0,0,1,40.926,471.8Zm7.884-4.377H47.153v5.9h4.3v-1.608H48.81Zm8.914,3.306a.95.95,0,1,1-1.884,0v-3.306H54.183v3.306a2.6,2.6,0,1,0,5.2,0v-3.306H57.724Zm4.4-1.691h1.764v4.287h1.657v-4.287H67.3v-1.615H62.12Zm8.034,4.287h1.657v-5.9H70.154Zm7.875-6a3.049,3.049,0,1,0,3.049,3.049A3.052,3.052,0,0,0,78.029,467.326Zm-.007,4.475a1.427,1.427,0,1,1,1.391-1.426A1.407,1.407,0,0,1,78.022,471.8Zm9.747-1.565-2.248-2.812h-.635l-.142-.176v.176h-.495v5.9h1.657v-2.779l2.236,2.779h.608l.181.227v-.227h.495v-5.9H87.769Zm8.28-.236a2.226,2.226,0,0,0-.535-.314c-.161-.067-.327-.129-.5-.185-.152-.05-.3-.1-.443-.151a1.258,1.258,0,0,1-.27-.131.384.384,0,0,1-.112-.109.275.275,0,0,1-.013-.1.378.378,0,0,1,.028-.146.31.31,0,0,1,.076-.109.408.408,0,0,1,.143-.083.975.975,0,0,1,.521-.008.954.954,0,0,1,.19.088.882.882,0,0,1,.117.085.7.7,0,0,0,1.11-.154l.282-.542-.3-.3a2.232,2.232,0,0,0-.751-.5,2.489,2.489,0,0,0-1.729-.016,1.943,1.943,0,0,0-.638.405,1.78,1.78,0,0,0-.408.6,1.832,1.832,0,0,0-.138.7,1.744,1.744,0,0,0,.168.789,1.644,1.644,0,0,0,.435.544,2.147,2.147,0,0,0,.541.317q.243.1.5.181c.15.047.3.1.439.145a1.236,1.236,0,0,1,.268.128.333.333,0,0,1,.106.105.287.287,0,0,1,.017.121.641.641,0,0,1-.043.238.454.454,0,0,1-.106.161.568.568,0,0,1-.195.118,1.1,1.1,0,0,1-.551.026,1.032,1.032,0,0,1-.19-.065.807.807,0,0,1-.132-.077c-.049-.036-.091-.069-.149-.119l-.1-.085a.694.694,0,0,0-1.013.087l-.368.572.289.328a2.565,2.565,0,0,0,.8.61,2.474,2.474,0,0,0,1.1.232,2.388,2.388,0,0,0,.885-.158,2.026,2.026,0,0,0,.69-.448,1.938,1.938,0,0,0,.44-.677,2.175,2.175,0,0,0,.146-.795,1.591,1.591,0,0,0-.6-1.3ZM17.958,447.271a1.634,1.634,0,0,0-1.489-.962h0a1.634,1.634,0,0,0-1.489.962l-5.4,11.978a1.287,1.287,0,1,0,2.35,1.051l.507-1.143.042.026a7.728,7.728,0,0,0,7.972-.04l.036-.023.522,1.178a1.29,1.29,0,1,0,2.355-1.053Zm1.472,9.561a5.2,5.2,0,0,1-5.936.042l-.029-.021,3-6.767,3,6.725Zm35.161-9.121a1.3,1.3,0,0,0-1.3-1.3h0a1.3,1.3,0,0,0-1.3,1.3v7.037c0,2.417-1.537,4.1-3.737,4.1-2.181,0-3.7-1.688-3.7-4.1v-7.037a1.3,1.3,0,0,0-1.3-1.3h-.006a1.3,1.3,0,0,0-1.3,1.3v7.037c0,3.9,2.6,6.62,6.317,6.62,3.735,0,6.344-2.722,6.344-6.62Zm9.67-.441a1.633,1.633,0,0,0-2.978,0l-5.4,11.978a1.287,1.287,0,0,0,1.173,1.816h0a1.287,1.287,0,0,0,1.177-.765l.507-1.143.042.026a7.728,7.728,0,0,0,7.971-.039l.036-.023.523,1.18a1.287,1.287,0,0,0,1.177.766H68.5a1.287,1.287,0,0,0,1.173-1.817Zm1.472,9.561a5.193,5.193,0,0,1-5.935.042l-.029-.021,3-6.767,3,6.725Zm19.523,4.234H85.3a1.287,1.287,0,0,0,1.287-1.287V447.692a1.284,1.284,0,0,0-1.284-1.284h0a1.284,1.284,0,0,0-1.1.627l-4.706,7.9-4.707-7.9a1.284,1.284,0,0,0-1.1-.627h-.026a1.284,1.284,0,0,0-1.284,1.284v12.087a1.287,1.287,0,0,0,1.287,1.287H73.7a1.287,1.287,0,0,0,1.287-1.291l-.024-7.548,3.3,5.489a1.436,1.436,0,0,0,1.231.7h0a1.436,1.436,0,0,0,1.231-.7l3.267-5.435-.014,7.5A1.287,1.287,0,0,0,85.258,461.066Zm12.667-13.8a1.633,1.633,0,0,0-2.978,0l-5.4,11.978a1.287,1.287,0,0,0,1.173,1.816h0A1.287,1.287,0,0,0,91.9,460.3l.507-1.143.042.026a7.727,7.727,0,0,0,7.972-.04l.035-.023.523,1.18a1.287,1.287,0,0,0,1.177.765h.006a1.287,1.287,0,0,0,1.173-1.817L99.8,451.428Zm1.472,9.561a5.194,5.194,0,0,1-5.935.042l-.03-.021,3-6.767,3,6.725Zm15.413-1.213a4.528,4.528,0,0,0,2.819-4.309c0-2.977-2.247-4.9-5.722-4.9H106.3v13.369a1.29,1.29,0,0,0,1.285,1.292h.032a1.3,1.3,0,0,0,1.292-1.292v-3.6h3.355l.281.633,1.027,2.306.523,1.182a1.288,1.288,0,0,0,1.175.769h.006a1.287,1.287,0,0,0,1.169-1.821Zm-2.941-1.926h-2.958V448.9h2.958c1.918,0,3.152.943,3.152,2.409C115.021,452.757,113.787,453.693,111.869,453.693Z" transform="translate(-9.464 -446.168)" fill="#fff"/>
</svg>
