<svg xmlns="http://www.w3.org/2000/svg" width="1922.004" height="918.759" viewBox="0 0 1922.004 918.759">
  <g id="Group_1596" data-name="Group 1596" transform="translate(1.5 -935.723)">
    <path id="Subtraction_10" data-name="Subtraction 10" d="M-975.131,2397.759c-122.805,0-220.289-27.562-314.563-54.217l-.025-.007-.011,0c-94.423-26.7-192.06-54.3-315.189-54.3s-220.771,27.606-315.2,54.3c-94.286,26.659-191.781,54.227-314.6,54.227s-220.3-27.566-314.586-54.224c-5.081-1.437-10.333-2.922-15.7-4.435V1529.871c4.9,1.379,9.6,2.708,15.7,4.434,94.286,26.658,191.781,54.224,314.588,54.224s220.31-27.567,314.593-54.225c94.427-26.7,192.068-54.305,315.2-54.305s220.77,27.607,315.194,54.3h.005l.026.007c94.275,26.655,191.758,54.217,314.562,54.217s220.309-27.566,314.593-54.223l.008,0,.511-.144,5.155-1.456.812-.229c3.288-.929,6.688-1.89,10.057-2.838v809.229c-3.754,1.057-7.579,2.138-10.954,3.092l-5.07,1.432-.511.144C-754.818,2370.192-852.316,2397.759-975.131,2397.759Z" transform="translate(2564 -543.777)" fill="#edf2f7" stroke="rgba(0,0,0,0)" stroke-miterlimit="10" stroke-width="1"/>
  </g>
</svg>
