<svg xmlns="http://www.w3.org/2000/svg" width="16.93" height="12.162" viewBox="0 0 16.93 12.162">
  <g id="Group_214" data-name="Group 214" transform="translate(-155.299 -179.942)">
    <path id="Path_165" data-name="Path 165" d="M192.374,261.414s-4.347,7.708-4.35,7.713a1.139,1.139,0,0,1-.206.275c-.016.016-.033.031-.05.047l-.058.048a1.058,1.058,0,0,1-.405.2.97.97,0,0,1-.246.027l-.017,0a1.032,1.032,0,0,1-.459-.107,1.105,1.105,0,0,1-.459-.442c-.012-.019-.021-.04-.031-.059s-.024-.041-.033-.063l-.01-.022c-.018-.042-.048-.127-.06-.159l-.115-.372s0,0,0,0l-.022-.064-.517-1.628-.4-1.252-.953,1.681-.838,1.473-.032.057,0,0-.188.336-.009.013,0,.008a1.118,1.118,0,0,1-.2.271c-.02.022-.041.04-.063.059l-.041.034a.987.987,0,0,1-.661.235h-.016a1.03,1.03,0,0,1-.458-.107,1.107,1.107,0,0,1-.459-.44c-.011-.019-.021-.039-.031-.059s-.025-.042-.034-.065l-.006-.013,0-.009h0c-.018-.042-.047-.127-.059-.159l-.116-.372s0,0,0,0l-.019-.064-.52-1.628-1.082-3.41-.247-.779a14.969,14.969,0,0,0,2.387.208l.036.114.057.179.217.682.638,2.007,1.032-1.818.4-.7.045-.079.266-.471c.735-.054,1.512-.133,2.324-.235l.133.423,0,.011.274.861.635,2,2.137-3.787Q190.882,261.751,192.374,261.414Z" transform="translate(-22.315 -77.624)" fill="#0db1cb"/>
    <path id="Path_166" data-name="Path 166" d="M172.229,180.638l-4.333-.7.212,1.14c-4.049.811-9.1,1.445-12.809.679l.554,1.676c3.988.82,9.592-.147,12.553-.754l.2,1.07Z" fill="#0db1cb"/>
  </g>
</svg>
