<svg xmlns="http://www.w3.org/2000/svg" width="42.667" height="42.667" viewBox="0 0 42.667 42.667">
  <g id="confirm" transform="translate(0.75 0.75)">
    <g id="Group_384" data-name="Group 384" transform="translate(13.723 14.58)">
      <g id="Group_383" data-name="Group 383">
        <path id="Path_531" data-name="Path 531" d="M143.795,136.5a1.715,1.715,0,0,0-2.425,0l-7.364,7.363-3.076-3.075a1.715,1.715,0,0,0-2.425,2.425l4.288,4.288a1.714,1.714,0,0,0,2.425,0l8.577-8.577A1.715,1.715,0,0,0,143.795,136.5Z" transform="translate(-128.002 -136.002)" fill="#123c65" stroke="#fff" stroke-width="1.5"/>
      </g>
    </g>
    <g id="Group_386" data-name="Group 386" transform="translate(0 0)">
      <g id="Group_385" data-name="Group 385" transform="translate(0 0)">
        <path id="Path_532" data-name="Path 532" d="M39.452,18.868a1.716,1.716,0,0,0-1.715,1.715A17.152,17.152,0,1,1,32.756,8.5,1.715,1.715,0,1,0,35.19,6.081a20.584,20.584,0,1,0,5.977,14.5A1.716,1.716,0,0,0,39.452,18.868Z" transform="translate(0 0)" fill="#123c65" stroke="#fff" stroke-width="1.5"/>
      </g>
    </g>
  </g>
</svg>
