<svg xmlns="http://www.w3.org/2000/svg" width="22.99" height="21.888" viewBox="0 0 22.99 21.888">
  <path id="cart001_-_E0BD" data-name="cart001 - E0BD" d="M-7.5-28.044h-3.99v.988h3.23l4.047,16.682A2.176,2.176,0,0,0-5.7-8.322,2.161,2.161,0,0,0-3.553-6.156,2.165,2.165,0,0,0-1.387-8.322a2.183,2.183,0,0,0-.342-1.159H3.838A2.183,2.183,0,0,0,3.5-8.322,2.165,2.165,0,0,0,5.662-6.156,2.161,2.161,0,0,0,7.809-8.322a2.157,2.157,0,0,0-2.147-2.147H-3.23l-.532-2.223H8.189L11.5-22.154H-6.061Zm17.594,6.878-2.6,7.486h-11.5l-1.824-7.486ZM-2.375-8.322A1.184,1.184,0,0,1-3.553-7.144,1.168,1.168,0,0,1-4.712-8.322,1.152,1.152,0,0,1-3.553-9.481,1.168,1.168,0,0,1-2.375-8.322Zm9.2,0A1.168,1.168,0,0,1,5.662-7.144,1.184,1.184,0,0,1,4.484-8.322,1.168,1.168,0,0,1,5.662-9.481,1.152,1.152,0,0,1,6.821-8.322Z" transform="translate(11.495 28.044)" fill="#fff"/>
</svg>
