<svg xmlns="http://www.w3.org/2000/svg" width="286.201" height="5.704" viewBox="0 0 286.201 5.704">
  <path id="Union_3" data-name="Union 3" d="M21356.35,5755.531a3.821,3.821,0,0,0-6.6,0,4.48,4.48,0,0,1-7.672,0,3.823,3.823,0,0,0-6.605,0,4.873,4.873,0,0,1-3.822,2.166v-.633a4.248,4.248,0,0,0,3.293-1.9,4.481,4.481,0,0,1,7.67-.005,3.815,3.815,0,0,0,6.6.005,4.483,4.483,0,0,1,7.672-.005,4.231,4.231,0,0,0,3.318,1.9v.633A4.862,4.862,0,0,1,21356.35,5755.531Zm-28.551,0a3.823,3.823,0,0,0-6.605,0,4.478,4.478,0,0,1-7.67,0,3.823,3.823,0,0,0-6.605,0,4.867,4.867,0,0,1-3.822,2.166v-.633a4.248,4.248,0,0,0,3.293-1.9,4.481,4.481,0,0,1,7.67-.005,3.815,3.815,0,0,0,6.6.005,4.483,4.483,0,0,1,7.672-.005,4.234,4.234,0,0,0,3.316,1.9v.633A4.861,4.861,0,0,1,21327.8,5755.531Zm-28.547,0a3.826,3.826,0,0,0-6.609,0,4.475,4.475,0,0,1-7.666,0,3.826,3.826,0,0,0-6.609,0,4.859,4.859,0,0,1-3.822,2.166v-.633a4.242,4.242,0,0,0,3.291-1.9,4.483,4.483,0,0,1,7.672-.005,3.819,3.819,0,0,0,6.6.005,4.483,4.483,0,0,1,7.672-.005,4.221,4.221,0,0,0,3.313,1.9v.633A4.855,4.855,0,0,1,21299.252,5755.531Zm-28.551,0a3.826,3.826,0,0,0-6.609,0,4.475,4.475,0,0,1-7.666,0,3.826,3.826,0,0,0-6.609,0,4.969,4.969,0,0,1-3.426,2.141v.025c-.07,0-.141,0-.209-.007s-.125.006-.187.007v-.022a4.978,4.978,0,0,1-3.447-2.144,3.826,3.826,0,0,0-6.609,0,4.475,4.475,0,0,1-7.666,0,3.826,3.826,0,0,0-6.609,0,4.475,4.475,0,0,1-7.666,0,3.821,3.821,0,0,0-6.6,0,4.48,4.48,0,0,1-7.672,0,3.823,3.823,0,0,0-6.605,0,4.873,4.873,0,0,1-3.822,2.166v-.633a4.248,4.248,0,0,0,3.293-1.9,4.481,4.481,0,0,1,7.67-.005,3.815,3.815,0,0,0,6.6.005,4.483,4.483,0,0,1,7.672-.005,3.819,3.819,0,0,0,6.6.005,4.483,4.483,0,0,1,7.672-.005,3.819,3.819,0,0,0,6.6.005,4.483,4.483,0,0,1,7.672-.005,3.492,3.492,0,0,0,6.207.005,4.483,4.483,0,0,1,7.672-.005,3.819,3.819,0,0,0,6.6.005,4.483,4.483,0,0,1,7.672-.005,4.221,4.221,0,0,0,3.313,1.9v.633A4.852,4.852,0,0,1,21270.7,5755.531Zm-85.348,0a3.821,3.821,0,0,0-6.6,0,4.48,4.48,0,0,1-7.672,0,3.821,3.821,0,0,0-6.6,0,4.48,4.48,0,0,1-7.672,0,3.821,3.821,0,0,0-6.6,0,4.48,4.48,0,0,1-7.672,0,3.823,3.823,0,0,0-6.605,0,4.478,4.478,0,0,1-7.67,0,3.823,3.823,0,0,0-6.605,0,4.478,4.478,0,0,1-7.67,0,3.823,3.823,0,0,0-6.605,0,4.478,4.478,0,0,1-7.67,0,3.823,3.823,0,0,0-6.605,0,4.475,4.475,0,0,1-7.666,0,3.826,3.826,0,0,0-6.609,0,4.859,4.859,0,0,1-3.822,2.166v-.633a4.242,4.242,0,0,0,3.291-1.9,4.483,4.483,0,0,1,7.672-.005,3.819,3.819,0,0,0,6.6.005,4.483,4.483,0,0,1,7.672-.005,3.82,3.82,0,0,0,6.605.005,4.481,4.481,0,0,1,7.67-.005,3.82,3.82,0,0,0,6.605.005,4.481,4.481,0,0,1,7.67-.005,3.82,3.82,0,0,0,6.605.005,4.481,4.481,0,0,1,7.67-.005,3.815,3.815,0,0,0,6.6.005,4.483,4.483,0,0,1,7.672-.005,3.819,3.819,0,0,0,6.6.005,4.483,4.483,0,0,1,7.672-.005,3.819,3.819,0,0,0,6.6.005,4.483,4.483,0,0,1,7.672-.005,4.221,4.221,0,0,0,3.313,1.9v.633A4.86,4.86,0,0,1,21185.354,5755.531Z" transform="translate(-21074.498 -5752.501)" fill="#b9c6d2" stroke="rgba(0,0,0,0)" stroke-miterlimit="10" stroke-width="1"/>
</svg>
