<svg xmlns="http://www.w3.org/2000/svg" width="154" height="38.988" viewBox="0 0 154 38.988">
  <path id="Path_1" data-name="Path 1" d="M50.666,469.941l.006,0a1.769,1.769,0,1,0,2.929-1.984l.02-.013-.174-.179c-.029-.032-.059-.063-.091-.093l-.362-.373a11.413,11.413,0,0,0-3.216-2.328,10.017,10.017,0,0,0-1.9-.683,10.675,10.675,0,0,0-4.32-.252l-.552.093c-.224.037-.439.075-.664.1a7.258,7.258,0,0,1-2.908-.29,4.926,4.926,0,0,1-.673-.253,6.367,6.367,0,0,1-1.216-.654,7.215,7.215,0,0,1-3.114-4.619,7.29,7.29,0,0,1,5.722-8.574,7.309,7.309,0,0,1,8.574,5.722,7.274,7.274,0,0,1-.429,4.245,1.725,1.725,0,0,0,1.089,2.337l.036.01a1.745,1.745,0,0,0,2.1-.918,10.633,10.633,0,0,0,.671-6.376,10.808,10.808,0,1,0-15.231,11.912,12.2,12.2,0,0,0,1.879.683,10.67,10.67,0,0,0,3.927.281c.309-.037.617-.084.9-.14,0,0,.337-.047.5-.075a7.355,7.355,0,0,1,3.123.262,7.721,7.721,0,0,1,1.879.9,8.257,8.257,0,0,1,1.057.851ZM44.952,480.1a3.167,3.167,0,0,0-.762-.448q-.345-.144-.709-.263-.323-.106-.63-.215a1.777,1.777,0,0,1-.384-.186.54.54,0,0,1-.16-.155.373.373,0,0,1-.019-.141.538.538,0,0,1,.04-.207.443.443,0,0,1,.105-.154.6.6,0,0,1,.2-.12,1.386,1.386,0,0,1,.743-.012,1.374,1.374,0,0,1,.27.125,1.341,1.341,0,0,1,.169.122.991.991,0,0,0,1.579-.219l.4-.773-.429-.429a3.181,3.181,0,0,0-1.07-.714,3.536,3.536,0,0,0-2.461-.023,2.749,2.749,0,0,0-.908.577,2.517,2.517,0,0,0-.581.858,2.61,2.61,0,0,0-.2.994,2.48,2.48,0,0,0,.24,1.125,2.35,2.35,0,0,0,.618.772,3.079,3.079,0,0,0,.77.452q.347.142.714.257.32.1.625.206a1.752,1.752,0,0,1,.382.181.486.486,0,0,1,.152.15.406.406,0,0,1,.024.172.9.9,0,0,1-.061.337.646.646,0,0,1-.151.229.814.814,0,0,1-.277.169,1.578,1.578,0,0,1-.786.036,1.464,1.464,0,0,1-.271-.093,1.161,1.161,0,0,1-.187-.107c-.07-.052-.131-.1-.184-.145l-.17-.147a.988.988,0,0,0-1.443.124l-.524.814.412.467a3.644,3.644,0,0,0,1.135.868,3.514,3.514,0,0,0,1.561.331A3.4,3.4,0,0,0,44,484.689a2.9,2.9,0,0,0,.984-.638,2.779,2.779,0,0,0,.626-.964,3.118,3.118,0,0,0,.207-1.13,2.265,2.265,0,0,0-.861-1.857Zm9.316-3.807a4.341,4.341,0,1,0,4.34,4.34A4.345,4.345,0,0,0,54.268,476.292Zm-.01,6.371a2.031,2.031,0,1,1,1.981-2.031A2,2,0,0,1,54.258,482.663Zm11.225-6.232h-2.36v8.4h6.121v-2.29H65.483Zm12.691,4.707a1.353,1.353,0,1,1-2.682,0v-4.707h-2.36v4.707a3.7,3.7,0,1,0,7.4,0v-4.707h-2.36Zm6.258-2.408h2.511v6.1H89.3v-6.1h2.511v-2.3H84.432Zm11.439,6.1h2.36v-8.4h-2.36Zm11.212-8.542a4.341,4.341,0,1,0,4.341,4.34A4.345,4.345,0,0,0,107.083,476.292Zm-.01,6.371a2.031,2.031,0,1,1,1.981-2.031A2,2,0,0,1,107.073,482.663Zm13.877-2.228-3.2-4h-.9l-.2-.251v.251h-.7v8.4h2.36v-3.957l3.183,3.957h.866l.258.323v-.323h.7v-8.4H120.95Zm11.789-.336a3.169,3.169,0,0,0-.762-.448c-.229-.1-.466-.184-.708-.263-.216-.071-.427-.143-.63-.215a1.788,1.788,0,0,1-.385-.186.547.547,0,0,1-.16-.155.391.391,0,0,1-.019-.142.538.538,0,0,1,.04-.207.442.442,0,0,1,.108-.156.581.581,0,0,1,.2-.118,1.093,1.093,0,0,1,.381-.057,1.1,1.1,0,0,1,.361.045,1.362,1.362,0,0,1,.271.126,1.262,1.262,0,0,1,.167.122.992.992,0,0,0,1.58-.219l.4-.772-.427-.429a3.176,3.176,0,0,0-1.07-.716,3.543,3.543,0,0,0-2.461-.022,2.768,2.768,0,0,0-.908.577,2.533,2.533,0,0,0-.58.857,2.609,2.609,0,0,0-.2.995,2.484,2.484,0,0,0,.239,1.123,2.34,2.34,0,0,0,.62.775,3.059,3.059,0,0,0,.77.452q.347.142.713.257c.214.067.423.136.625.206a1.764,1.764,0,0,1,.382.182.474.474,0,0,1,.151.15.408.408,0,0,1,.024.172.912.912,0,0,1-.061.339.646.646,0,0,1-.151.229.809.809,0,0,1-.277.168,1.562,1.562,0,0,1-.785.036,1.463,1.463,0,0,1-.271-.092,1.15,1.15,0,0,1-.188-.109c-.07-.051-.13-.1-.212-.17l-.141-.122a.988.988,0,0,0-1.442.124l-.524.814.412.467a3.65,3.65,0,0,0,1.135.868,3.522,3.522,0,0,0,1.561.33,3.4,3.4,0,0,0,1.26-.225,2.883,2.883,0,0,0,.983-.637,2.758,2.758,0,0,0,.626-.964,3.1,3.1,0,0,0,.208-1.131,2.265,2.265,0,0,0-.861-1.857ZM21.558,447.739a2.326,2.326,0,0,0-2.12-1.369h0a2.326,2.326,0,0,0-2.121,1.37L9.628,464.793a1.833,1.833,0,1,0,3.346,1.5l.722-1.628.06.037a11,11,0,0,0,11.35-.057l.051-.032.743,1.677a1.836,1.836,0,1,0,3.353-1.5Zm2.1,13.612a7.4,7.4,0,0,1-8.451.059l-.042-.03,4.268-9.635,4.266,9.575Zm50.06-12.985a1.856,1.856,0,0,0-1.856-1.856h0A1.856,1.856,0,0,0,70,448.366v10.019c0,3.441-2.188,5.844-5.321,5.844-3.1,0-5.274-2.4-5.274-5.844V448.366a1.856,1.856,0,0,0-1.856-1.856h-.009a1.856,1.856,0,0,0-1.856,1.856v10.019c0,5.549,3.7,9.424,8.994,9.424,5.318,0,9.032-3.875,9.032-9.424Zm13.768-.627a2.325,2.325,0,0,0-4.239,0l-7.69,17.054a1.833,1.833,0,0,0,1.671,2.586h0a1.833,1.833,0,0,0,1.675-1.09l.722-1.628.06.037a11,11,0,0,0,11.349-.056l.052-.033.744,1.679a1.833,1.833,0,0,0,1.675,1.09h.009a1.833,1.833,0,0,0,1.67-2.587Zm2.1,13.613a7.394,7.394,0,0,1-8.45.059l-.042-.03,4.268-9.634,4.265,9.575Zm27.8,6.028h.054a1.833,1.833,0,0,0,1.833-1.833V448.338a1.828,1.828,0,0,0-1.827-1.827h0a1.828,1.828,0,0,0-1.57.892l-6.7,11.25-6.7-11.25a1.827,1.827,0,0,0-1.57-.892h-.037a1.828,1.828,0,0,0-1.828,1.827v17.209a1.833,1.833,0,0,0,1.833,1.833h.053a1.833,1.833,0,0,0,1.833-1.838l-.034-10.746,4.694,7.815a2.045,2.045,0,0,0,1.753.992h0a2.045,2.045,0,0,0,1.753-.991l4.652-7.739-.02,10.671A1.833,1.833,0,0,0,117.375,467.379Zm18.035-19.641a2.325,2.325,0,0,0-4.239,0l-7.69,17.054a1.833,1.833,0,0,0,1.671,2.586h0a1.832,1.832,0,0,0,1.675-1.09l.722-1.628.06.037a11,11,0,0,0,11.35-.057l.05-.032.745,1.68a1.832,1.832,0,0,0,1.675,1.09h.009a1.833,1.833,0,0,0,1.67-2.586Zm2.1,13.613a7.4,7.4,0,0,1-8.45.059l-.042-.03,4.269-9.635,4.265,9.575Zm21.944-1.727a6.446,6.446,0,0,0,4.014-6.135c0-4.239-3.2-6.979-8.147-6.979h-7.981v19.033a1.836,1.836,0,0,0,1.83,1.839h.046a1.844,1.844,0,0,0,1.839-1.839v-5.122h4.776l.4.9,1.462,3.283.745,1.683a1.834,1.834,0,0,0,1.673,1.094h.009a1.832,1.832,0,0,0,1.664-2.593Zm-4.188-2.742h-4.211v-6.823h4.211c2.731,0,4.487,1.342,4.487,3.43C159.749,455.549,157.993,456.882,155.262,456.882Z" transform="translate(-9.464 -446.168)" fill="#123c65"/>
</svg>
