<svg xmlns="http://www.w3.org/2000/svg" width="54.897" height="58.361" viewBox="0 0 54.897 58.361">
  <g id="headphones" transform="translate(0.05 0.05)">
    <path id="Path_2500" data-name="Path 2500" d="M61.481,22.154v-2.24A20.462,20.462,0,0,0,56.144,5.875,18.407,18.407,0,0,0,42.485,0H40.637A18.407,18.407,0,0,0,26.977,5.875a20.462,20.462,0,0,0-5.336,14.039v2.24a8.038,8.038,0,0,0-7.491,8v3.5a8.029,8.029,0,0,0,8.017,8.017h4.516a1.473,1.473,0,0,0,1.469-1.469V23.6a1.473,1.473,0,0,0-1.469-1.469H24.578V19.914c0-9.682,6.9-16.976,16.046-16.976h1.848c9.155,0,16.046,7.295,16.046,16.976v2.215H56.413A1.473,1.473,0,0,0,54.945,23.6v16.6a1.473,1.473,0,0,0,1.469,1.469H58.47c-.6,7.662-5.875,9.437-8.323,9.841a5.165,5.165,0,0,0-4.908-3.562H41.567a5.159,5.159,0,0,0,0,10.318h3.684a5.166,5.166,0,0,0,4.969-3.794,13.893,13.893,0,0,0,4.982-1.7c2.656-1.554,5.8-4.724,6.218-11.114a8.026,8.026,0,0,0,7.527-8v-3.5A8,8,0,0,0,61.481,22.154ZM25.239,38.726H22.191a5.083,5.083,0,0,1-5.079-5.079v-3.5a5.083,5.083,0,0,1,5.079-5.079h3.048Zm20.012,16.6H41.567a2.215,2.215,0,0,1,0-4.431h3.684a2.215,2.215,0,1,1,0,4.431ZM66.021,33.647a5.083,5.083,0,0,1-5.079,5.079H57.894V25.067h3.048a5.083,5.083,0,0,1,5.079,5.079Z" transform="translate(-14.15)" fill="#0db1cb" stroke="#18a5d4" stroke-width="0.1"/>
  </g>
</svg>
