<svg xmlns="http://www.w3.org/2000/svg" width="1921" height="108.772" viewBox="0 0 1921 108.772"><path d="M1921,918H0V859.1c5.5,1.549,11.021,3.111,15.7,4.435,94.284,26.658,191.778,54.223,314.586,54.223S550.6,890.193,644.878,863.535l.007,0c94.426-26.7,192.066-54.3,315.2-54.3s220.766,27.606,315.187,54.3l.013,0,.024.007.008,0c94.271,26.654,191.752,54.215,314.555,54.215s220.314-27.566,314.6-54.225l.511-.144,3.168-.895.552-.156,1.351-.382,2.258-.638.793-.224c2.545-.719,5.239-1.479,7.9-2.229V918Z" transform="translate(0 -809.229)" fill="#fff"/></svg>